<svg xmlns="http://www.w3.org/2000/svg" version="1.1" xmlns:xlink="http://www.w3.org/1999/xlink" xmlns:svgjs="http://svgjs.dev/svgjs" width="2000" height="1500" viewBox="0 0 2000 1500"><rect width="2000" height="1500" fill="#463746"></rect><g transform="matrix(0.75,0,0,0.75,249.090909090909,282.7536437246963)"><svg viewBox="0 0 396 247" data-background-color="#463746" preserveAspectRatio="xMidYMid meet" height="1247" width="2000" xmlns="http://www.w3.org/2000/svg" xmlns:xlink="http://www.w3.org/1999/xlink"><g id="tight-bounds" transform="matrix(1,0,0,1,0.2400000000000091,-0.09999999999999432)"><svg viewBox="0 0 395.52 247.2" height="247.2" width="395.52"><g><svg></svg></g><g><svg viewBox="0 0 395.52 247.2" height="247.2" width="395.52"><g transform="matrix(1,0,0,1,111.84875102040816,47.215199999999996)"><svg viewBox="0 0 171.82249795918366 152.7696" height="152.7696" width="171.82249795918366"><g><svg viewBox="0 0 171.82249795918366 152.7696" height="152.7696" width="171.82249795918366"><g><svg viewBox="0 0 171.82249795918366 152.7696" height="152.7696" width="171.82249795918366"><g><svg viewBox="0 0 171.82249795918366 152.7696" height="152.7696" width="171.82249795918366"><g id="textblocktransform"><svg viewBox="0 0 171.82249795918366 152.7696" height="152.7696" width="171.82249795918366" id="textblock"><g><svg viewBox="0 0 171.82249795918366 152.7696" height="152.7696" width="171.82249795918366"><g transform="matrix(1,0,0,1,0,0)"><svg width="171.82249795918366" viewBox="4.88 -32.43 37.19 33.08" height="152.7696" data-palette-color="#ffffff"><path d="M9.63 0L4.88 0 4.88-31.85 9.63-31.85 9.63 0ZM30 0.65L30 0.65Q26.75 0.65 24.02-0.51 21.3-1.68 19.64-3.98 17.97-6.28 17.9-9.73L17.9-9.73 22.55-9.73Q22.55-7.65 23.56-6.33 24.57-5 26.25-4.36 27.92-3.73 29.95-3.73L29.95-3.73Q32-3.73 33.57-4.35 35.15-4.98 36.01-6.03 36.87-7.08 36.87-8.43L36.87-8.43Q36.87-10.25 35.75-11.36 34.62-12.48 32.32-13.25L32.32-13.25 26.4-15.45Q22.57-16.88 20.57-18.74 18.57-20.6 18.57-23.93L18.57-23.93Q18.57-27.7 21.52-30.06 24.47-32.43 29.82-32.43L29.82-32.43Q34.9-32.43 37.71-30.08 40.52-27.73 40.92-23.68L40.92-23.68 36.25-23.68Q35.9-25.73 34.34-26.93 32.77-28.13 29.82-28.13L29.82-28.13Q26.97-28.13 25.37-26.89 23.77-25.65 23.77-23.78L23.77-23.78Q23.77-22.23 24.79-21.3 25.8-20.38 27.95-19.63L27.95-19.63 34.7-17.15Q38.17-15.93 40.12-13.85 42.07-11.78 42.07-8.58L42.07-8.58Q42.07-5.88 40.67-3.8 39.27-1.73 36.57-0.54 33.87 0.65 30 0.65Z" opacity="1" transform="matrix(1,0,0,1,0,0)" fill="#ffffff" class="wordmark-text-0" data-fill-palette-color="primary" id="text-0"></path></svg></g></svg></g></svg></g></svg></g></svg></g></svg></g></svg></g><g><path d="M209.511 0c30.402 0 58.24 10.976 79.768 29.183l-11.147 0c-19.26-14.022-42.974-22.294-68.621-22.295-25.647 0-49.361 8.272-68.621 22.295l-11.147 0c21.528-18.206 49.366-29.183 79.768-29.183zM333.111 123.6c0 27.095-8.718 52.153-23.502 72.523v-12.472c10.548-17.544 16.614-38.089 16.614-60.051 0-21.962-6.066-42.507-16.614-60.051v-12.472c14.784 20.37 23.503 45.429 23.502 72.523zM209.511 247.2c-30.402 0-58.24-10.976-79.768-29.183l11.147 0c19.26 14.022 42.974 22.294 68.621 22.295 25.647 0 49.361-8.272 68.621-22.295l11.147 0c-21.528 18.206-49.366 29.183-79.768 29.183z" fill="#eaa79c" stroke="transparent" data-fill-palette-color="tertiary"></path></g></svg></g><defs></defs></svg><rect width="395.52" height="247.2" fill="none" stroke="none" visibility="hidden"></rect></g></svg></g></svg>